<svg xmlns="http://www.w3.org/2000/svg" width="383" height="86" fill="#fff"><path d="M32.5 62.46v.06H19.9v-.06c.4-.23.68-.73.45-2.2l-.62-3.9h-7.1l-.62 3.9c-.23 1.47.06 2 .45 2.2v.06H.5v-.06c.45-.23.8-1 1.3-3.16l7.57-33.75c.28-1.3.17-1.75-.23-2v-.05h14.73v.05c-.4.23-.5.74-.22 2L31.2 59.3c.5 2.2.8 2.93 1.3 3.16zm-14-13.7l-2.3-14-2.32 14zm42.17 2.86c0 6.5-4.35 10.9-13.9 10.9H32.9v-.06c.28-.17.68-.5.68-1.64V25.2c0-1.13-.4-1.47-.68-1.64v-.05h12.6c8.7 0 13.77 3.67 13.77 10.38a8 8 0 0 1-5.31 8c3.95 1.26 6.72 4.76 6.72 9.72zm-16.15-20.2v7.4h1c2.14 0 4.06-1 4.06-3.67s-2-3.72-4.06-3.72zM50 50.5c0-2.5-1.64-4-4.57-4h-.9v8.18h.9c2.82-.01 4.57-1.3 4.57-4.18zm13.28 10.66a1.38 1.38 0 0 0-1.07.34h-.06V50.38c3.9 2.82 7 3.5 9.26 3.5 1.86 0 3.1-.8 3.1-2.42s-1-2.77-5.36-6c-5-3.78-7.34-6.16-7.34-11.4 0-5.54 4.24-11.18 12.08-11.18 4.4 0 6.43 1.18 7.9 1.18a1.29 1.29 0 0 0 1-.28h.06v10.07a14.37 14.37 0 0 0-7.28-2.26c-1.7 0-2.94.73-2.94 2.14 0 1.64 1.58 2.77 4.63 5 6.2 4.57 8.13 8.07 8.13 13.1 0 6.55-4.4 11.35-11.8 11.35-5.6-.03-8.05-2-10.3-2zm23.32-18.1c0-12.6 5-20.32 14.85-20.32s14.84 7.73 14.84 20.32-5 20.3-14.84 20.3-14.85-7.73-14.85-20.3zm18.17 0c0-5-.1-11.86-3.32-11.86s-3.33 6.9-3.33 11.86 0 11.85 3.33 11.85 3.32-6.9 3.32-11.85zm33.43 10.2v9.26h-20.14v-.06c.28-.17.67-.5.67-1.64V25.2c0-1.13-.4-1.47-.67-1.64v-.05h12.3v.05c-.28.17-.68.5-.68 1.64v28.6h6.66c1.36 0 1.64-.28 1.8-.56zm1.54-2.88V25.2c0-1.13-.4-1.47-.68-1.64v-.05h12.3v.05c-.3.17-.68.5-.68 1.64v25.9c0 2.3.68 3.72 2.43 3.72s2.42-1.4 2.42-3.72V25.2c0-1.13-.4-1.47-.67-1.64v-.05h12.3v.05c-.28.17-.68.5-.68 1.64v25.17c0 8.13-4.34 12.93-13.37 12.93s-13.38-4.8-13.38-12.93zM193 32.77h-.06c-.17-.28-.45-.56-1.8-.56h-4.62v28.6c0 1.13.4 1.47.67 1.64v.06h-12.3v-.06c.28-.17.68-.5.68-1.64V32.2h-4.86c-1.35 0-1.63.28-1.8.56h-.06V23.5H193zm13.4-9.3h8.86c10.87 0 19.82 7.56 19.82 19.57 0 11.75-9 19.47-19.93 19.47h-8.75zM214.8 59c9.53 0 16.52-6.68 16.52-16 0-9.53-7-16-16.52-16h-4.6v32zm31.2 3.52h-3.78v-39h7.1c6.88 0 12.9 3.2 12.9 10.72 0 6.78-5.18 10.56-11.65 10.7l14.3 17.6h-4.56L246.17 44.9H246zm3.42-21.13c4.7 0 9-1.6 9-7.2 0-6.27-4.92-7.2-9.53-7.2H246v14.4zm26.46 21.13h-3.78v-39h3.78zm42.82 1.24l-28.07-32h-.1v30.76h-3.78V22.24L314.8 54.3h.1V23.5h3.8zm30.84-40.28h5.08L335.82 43l20.1 19.57h-5.17L333 45.33h-.1v17.2H329v-39h3.83v17.3h.1zM378 30.63c-1.66-2.7-3.73-4.25-7.15-4.25s-6.67 2.5-6.67 6.2c0 9.17 18.32 7 18.32 19.52 0 6.73-5.53 11-12.16 11-5.75 0-10.87-3.42-12.43-8.6l3.2-1.7a9.82 9.82 0 0 0 9.22 6.78c4.5 0 8.34-3.06 8.34-7.56 0-9.22-18.33-7.4-18.33-19.52 0-6 4.7-9.68 10.5-9.68a11.58 11.58 0 0 1 10.21 6z"/></svg>